<svg width="150" height="17" viewBox="0 0 150 17" fill="none" xmlns="http://www.w3.org/2000/svg">
<path d="M8.03534 0.333169C8.17973 -0.111056 8.8557 -0.111056 9.00002 0.333169L10.9294 6.11917C10.9939 6.31783 11.6851 6.11917 11.8941 6.11917H17.6822C18.1494 6.11917 18.0602 6.80895 17.6822 7.0835L12.8588 9.9765C12.6897 10.0994 12.7942 10.7422 12.8588 10.9408L14.7881 16.7268C14.9325 17.171 14.2014 17.0014 13.8234 16.7268L9.00002 13.8338C8.83091 13.711 9.16907 13.711 9.00002 13.8338L4.1766 16.7268C3.79857 17.0014 3.06752 17.171 3.21191 16.7268L5.14128 10.9408C5.20586 10.7422 5.31034 10.0994 5.14128 9.9765L0.317856 7.0835C-0.0601617 6.80895 -0.1494 6.11917 0.317856 6.11917H6.10597C6.31493 6.11917 7.00609 6.31783 7.07065 6.11917L8.03534 0.333169Z" fill="#FFBC0F"/>
<path d="M41.0353 0.333169C41.1797 -0.111056 41.8557 -0.111056 42 0.333169L43.9294 6.11917C43.9939 6.31783 44.6851 6.11917 44.8941 6.11917H50.6822C51.1494 6.11917 51.0602 6.80895 50.6822 7.0835L45.8588 9.9765C45.6897 10.0994 45.7942 10.7422 45.8588 10.9408L47.7881 16.7268C47.9325 17.171 47.2014 17.0014 46.8234 16.7268L42 13.8338C41.8309 13.711 42.1691 13.711 42 13.8338L37.1766 16.7268C36.7986 17.0014 36.0675 17.171 36.2119 16.7268L38.1413 10.9408C38.2059 10.7422 38.3103 10.0994 38.1413 9.9765L33.3179 7.0835C32.9398 6.80895 32.8506 6.11917 33.3179 6.11917H39.106C39.3149 6.11917 40.0061 6.31783 40.0707 6.11917L41.0353 0.333169Z" fill="#FFBC0F"/>
<path d="M74.0353 0.333169C74.1797 -0.111056 74.8557 -0.111056 75 0.333169L76.9294 6.11917C76.9939 6.31783 77.6851 6.11917 77.8941 6.11917H83.6822C84.1494 6.11917 84.0601 6.80895 83.6822 7.0835L78.8588 9.9765C78.6897 10.0994 78.7942 10.7422 78.8588 10.9408L80.7881 16.7268C80.9325 17.171 80.2014 17.0014 79.8234 16.7268L75 13.8338C75.1691 13.711 74.8309 13.711 75 13.8338L70.1766 16.7268C69.7986 17.0014 69.0675 17.171 69.2119 16.7268L71.1413 10.9408C71.2059 10.7422 71.3103 10.0994 71.1413 9.9765L66.3179 7.0835C65.9398 6.80895 65.8506 6.11917 66.3179 6.11917H72.106C72.3149 6.11917 73.0061 6.31783 73.0707 6.11917L74.0353 0.333169Z" fill="#FFBC0F"/>
<path d="M107.035 0.333169C107.18 -0.111056 107.856 -0.111056 108 0.333169L109.929 6.11917C109.994 6.31783 110.685 6.11917 110.894 6.11917H116.682C117.149 6.11917 117.06 6.80895 116.682 7.0835L111.859 9.9765C111.69 10.0994 111.794 10.7422 111.859 10.9408L113.788 16.7268C113.933 17.171 113.201 17.0014 112.823 16.7268L108 13.8338C107.831 13.711 108.169 13.711 108 13.8338L103.177 16.7268C102.799 17.0014 102.068 17.171 102.212 16.7268L104.141 10.9408C104.206 10.7422 104.31 10.0994 104.141 9.9765L99.3179 7.0835C98.9398 6.80895 98.8506 6.11917 99.3179 6.11917H105.106C105.315 6.11917 106.006 6.31783 106.071 6.11917L107.035 0.333169Z" fill="#FFBC0F"/>
<path d="M140.035 0.333169C140.18 -0.111056 140.856 -0.111056 141 0.333169L142.929 6.11917C142.994 6.31783 143.685 6.11917 143.894 6.11917H149.682C150.149 6.11917 150.06 6.80895 149.682 7.0835L144.859 9.9765C144.69 10.0994 144.794 10.7422 144.859 10.9408L146.788 16.7268C146.933 17.171 146.201 17.0014 145.823 16.7268L141 13.8338C140.831 13.711 141.169 13.711 141 13.8338L136.177 16.7268C135.799 17.0014 135.068 17.171 135.212 16.7268L137.141 10.9408C137.206 10.7422 137.31 10.0994 137.141 9.9765L132.318 7.0835C131.94 6.80895 131.851 6.11917 132.318 6.11917H138.106C138.315 6.11917 139.006 6.31783 139.071 6.11917L140.035 0.333169Z" fill="#FFBC0F"/>
</svg>
